<mxfile host="app.diagrams.net" modified="2021-08-15T10:19:59.927Z" agent="5.0 (Windows NT 10.0; Win64; x64) AppleWebKit/537.36 (KHTML, like Gecko) Chrome/92.0.4515.131 Safari/537.36" etag="V-5IfzyopQCyiqEvImGj" version="14.7.7" type="github">
  <diagram id="CdLv_06fP5N1sXC1U6K2" name="Page-1">
    <mxGraphModel dx="865" dy="456" grid="1" gridSize="10" guides="1" tooltips="1" connect="1" arrows="1" fold="1" page="1" pageScale="1" pageWidth="850" pageHeight="1100" math="0" shadow="0">
      <root>
        <mxCell id="0" />
        <mxCell id="1" parent="0" />
        <mxCell id="jXaK1RRbCuR9iNc4X-hZ-1" value="" style="rounded=0;whiteSpace=wrap;html=1;" vertex="1" parent="1">
          <mxGeometry x="350" y="170" width="400" height="260" as="geometry" />
        </mxCell>
        <mxCell id="jXaK1RRbCuR9iNc4X-hZ-2" style="edgeStyle=orthogonalEdgeStyle;rounded=0;orthogonalLoop=1;jettySize=auto;html=1;entryX=0;entryY=0.5;entryDx=0;entryDy=0;strokeColor=#66FFFF;exitX=1;exitY=0.5;exitDx=0;exitDy=0;strokeWidth=2;" edge="1" parent="1" source="jXaK1RRbCuR9iNc4X-hZ-27" target="jXaK1RRbCuR9iNc4X-hZ-20">
          <mxGeometry relative="1" as="geometry">
            <Array as="points">
              <mxPoint x="300" y="241" />
              <mxPoint x="300" y="241" />
            </Array>
            <mxPoint x="250" y="227" as="sourcePoint" />
          </mxGeometry>
        </mxCell>
        <mxCell id="jXaK1RRbCuR9iNc4X-hZ-3" value="P&lt;sup&gt;G&lt;/sup&gt;&lt;sub&gt;B&lt;/sub&gt;" style="edgeLabel;html=1;align=center;verticalAlign=middle;resizable=0;points=[];" vertex="1" connectable="0" parent="jXaK1RRbCuR9iNc4X-hZ-2">
          <mxGeometry x="-0.013" y="-1" relative="1" as="geometry">
            <mxPoint as="offset" />
          </mxGeometry>
        </mxCell>
        <mxCell id="jXaK1RRbCuR9iNc4X-hZ-30" style="edgeStyle=orthogonalEdgeStyle;rounded=0;orthogonalLoop=1;jettySize=auto;html=1;entryX=0.5;entryY=0;entryDx=0;entryDy=0;fillColor=#1ba1e2;strokeColor=#006EAF;strokeWidth=2;" edge="1" parent="1" source="jXaK1RRbCuR9iNc4X-hZ-4" target="jXaK1RRbCuR9iNc4X-hZ-27">
          <mxGeometry relative="1" as="geometry" />
        </mxCell>
        <mxCell id="jXaK1RRbCuR9iNc4X-hZ-32" value="P&lt;sup&gt;UG&lt;/sup&gt;&lt;sub&gt;B&lt;/sub&gt;" style="edgeLabel;html=1;align=center;verticalAlign=middle;resizable=0;points=[];" vertex="1" connectable="0" parent="jXaK1RRbCuR9iNc4X-hZ-30">
          <mxGeometry x="-0.6501" y="-1" relative="1" as="geometry">
            <mxPoint as="offset" />
          </mxGeometry>
        </mxCell>
        <mxCell id="jXaK1RRbCuR9iNc4X-hZ-4" value="UTILITY&lt;br&gt;GRID" style="rounded=0;whiteSpace=wrap;html=1;fontSize=12;" vertex="1" parent="1">
          <mxGeometry x="66" y="154" width="50" height="95.5" as="geometry" />
        </mxCell>
        <mxCell id="jXaK1RRbCuR9iNc4X-hZ-5" style="edgeStyle=orthogonalEdgeStyle;rounded=0;orthogonalLoop=1;jettySize=auto;html=1;exitX=1;exitY=0.5;exitDx=0;exitDy=0;entryX=0;entryY=0.75;entryDx=0;entryDy=0;strokeColor=#97D077;strokeWidth=2;" edge="1" parent="1" source="jXaK1RRbCuR9iNc4X-hZ-7" target="jXaK1RRbCuR9iNc4X-hZ-8">
          <mxGeometry relative="1" as="geometry">
            <Array as="points">
              <mxPoint x="520" y="260" />
              <mxPoint x="665" y="259" />
            </Array>
          </mxGeometry>
        </mxCell>
        <mxCell id="jXaK1RRbCuR9iNc4X-hZ-6" value="P&lt;sup&gt;ES&lt;/sup&gt;&lt;sub&gt;EL&lt;/sub&gt;" style="edgeLabel;html=1;align=center;verticalAlign=middle;resizable=0;points=[];" vertex="1" connectable="0" parent="jXaK1RRbCuR9iNc4X-hZ-5">
          <mxGeometry x="-0.0099" y="1" relative="1" as="geometry">
            <mxPoint as="offset" />
          </mxGeometry>
        </mxCell>
        <mxCell id="jXaK1RRbCuR9iNc4X-hZ-7" value="Electrical Storage&lt;br&gt;b(t)" style="rounded=0;whiteSpace=wrap;html=1;" vertex="1" parent="1">
          <mxGeometry x="451.68999999999994" y="235" width="58.38" height="50" as="geometry" />
        </mxCell>
        <mxCell id="jXaK1RRbCuR9iNc4X-hZ-8" value="Electrical &lt;br&gt;Load&lt;br&gt;P&lt;sub&gt;EL&lt;/sub&gt;" style="shape=trapezoid;perimeter=trapezoidPerimeter;whiteSpace=wrap;html=1;fixedSize=1;fontSize=15;" vertex="1" parent="1">
          <mxGeometry x="580" y="216" width="150" height="60" as="geometry" />
        </mxCell>
        <mxCell id="jXaK1RRbCuR9iNc4X-hZ-9" style="edgeStyle=orthogonalEdgeStyle;rounded=0;orthogonalLoop=1;jettySize=auto;html=1;exitX=0;exitY=0.5;exitDx=0;exitDy=0;entryX=0.5;entryY=1;entryDx=0;entryDy=0;strokeColor=#FF9933;strokeWidth=2;" edge="1" parent="1" source="jXaK1RRbCuR9iNc4X-hZ-15" target="jXaK1RRbCuR9iNc4X-hZ-23">
          <mxGeometry relative="1" as="geometry" />
        </mxCell>
        <mxCell id="jXaK1RRbCuR9iNc4X-hZ-10" value="P&lt;sup&gt;PV&lt;/sup&gt;&lt;sub&gt;G&lt;/sub&gt;" style="edgeLabel;html=1;align=center;verticalAlign=middle;resizable=0;points=[];" vertex="1" connectable="0" parent="jXaK1RRbCuR9iNc4X-hZ-9">
          <mxGeometry x="-0.1439" y="-1" relative="1" as="geometry">
            <mxPoint as="offset" />
          </mxGeometry>
        </mxCell>
        <mxCell id="jXaK1RRbCuR9iNc4X-hZ-11" style="edgeStyle=orthogonalEdgeStyle;rounded=0;orthogonalLoop=1;jettySize=auto;html=1;exitX=0.5;exitY=0;exitDx=0;exitDy=0;strokeColor=#FF9933;strokeWidth=2;" edge="1" parent="1" source="jXaK1RRbCuR9iNc4X-hZ-15" target="jXaK1RRbCuR9iNc4X-hZ-7">
          <mxGeometry relative="1" as="geometry">
            <Array as="points">
              <mxPoint x="481" y="300" />
              <mxPoint x="481" y="300" />
            </Array>
          </mxGeometry>
        </mxCell>
        <mxCell id="jXaK1RRbCuR9iNc4X-hZ-12" value="P&lt;sup&gt;PV&lt;/sup&gt;&lt;sub&gt;ES&lt;/sub&gt;" style="edgeLabel;html=1;align=center;verticalAlign=middle;resizable=0;points=[];" vertex="1" connectable="0" parent="jXaK1RRbCuR9iNc4X-hZ-11">
          <mxGeometry x="-0.1742" relative="1" as="geometry">
            <mxPoint as="offset" />
          </mxGeometry>
        </mxCell>
        <mxCell id="jXaK1RRbCuR9iNc4X-hZ-13" style="edgeStyle=orthogonalEdgeStyle;rounded=0;orthogonalLoop=1;jettySize=auto;html=1;exitX=1;exitY=0.5;exitDx=0;exitDy=0;strokeColor=#FF9933;entryX=0.5;entryY=1;entryDx=0;entryDy=0;strokeWidth=2;" edge="1" parent="1" source="jXaK1RRbCuR9iNc4X-hZ-15" target="jXaK1RRbCuR9iNc4X-hZ-8">
          <mxGeometry relative="1" as="geometry">
            <mxPoint x="562" y="263" as="targetPoint" />
            <Array as="points">
              <mxPoint x="655" y="355" />
            </Array>
          </mxGeometry>
        </mxCell>
        <mxCell id="jXaK1RRbCuR9iNc4X-hZ-14" value="P&lt;sup&gt;PV&lt;/sup&gt;&lt;sub&gt;EL&lt;/sub&gt;" style="edgeLabel;html=1;align=center;verticalAlign=middle;resizable=0;points=[];" vertex="1" connectable="0" parent="jXaK1RRbCuR9iNc4X-hZ-13">
          <mxGeometry x="-0.3171" y="-1" relative="1" as="geometry">
            <mxPoint y="-13.14" as="offset" />
          </mxGeometry>
        </mxCell>
        <mxCell id="jXaK1RRbCuR9iNc4X-hZ-15" value="P&lt;sub&gt;PV&lt;/sub&gt;" style="shape=process;whiteSpace=wrap;html=1;backgroundOutline=1;fontSize=15;" vertex="1" parent="1">
          <mxGeometry x="431.3800000000001" y="330" width="99" height="50.25" as="geometry" />
        </mxCell>
        <mxCell id="jXaK1RRbCuR9iNc4X-hZ-16" style="edgeStyle=orthogonalEdgeStyle;rounded=0;orthogonalLoop=1;jettySize=auto;html=1;exitX=0.5;exitY=0;exitDx=0;exitDy=0;entryX=0;entryY=0.25;entryDx=0;entryDy=0;strokeColor=#3333FF;strokeWidth=2;" edge="1" parent="1" source="jXaK1RRbCuR9iNc4X-hZ-20" target="jXaK1RRbCuR9iNc4X-hZ-8">
          <mxGeometry relative="1" as="geometry">
            <Array as="points">
              <mxPoint x="378" y="220" />
              <mxPoint x="570" y="220" />
              <mxPoint x="570" y="234" />
              <mxPoint x="594" y="234" />
            </Array>
          </mxGeometry>
        </mxCell>
        <mxCell id="jXaK1RRbCuR9iNc4X-hZ-17" value="P&lt;sup&gt;G&lt;/sup&gt;&lt;sub&gt;EL&lt;/sub&gt;" style="edgeLabel;html=1;align=center;verticalAlign=middle;resizable=0;points=[];" vertex="1" connectable="0" parent="jXaK1RRbCuR9iNc4X-hZ-16">
          <mxGeometry x="0.0544" y="-1" relative="1" as="geometry">
            <mxPoint as="offset" />
          </mxGeometry>
        </mxCell>
        <mxCell id="jXaK1RRbCuR9iNc4X-hZ-18" style="edgeStyle=orthogonalEdgeStyle;rounded=0;orthogonalLoop=1;jettySize=auto;html=1;exitX=1;exitY=0.5;exitDx=0;exitDy=0;entryX=0.01;entryY=0.309;entryDx=0;entryDy=0;strokeColor=#3333FF;entryPerimeter=0;strokeWidth=2;" edge="1" parent="1" source="jXaK1RRbCuR9iNc4X-hZ-20" target="jXaK1RRbCuR9iNc4X-hZ-7">
          <mxGeometry relative="1" as="geometry">
            <mxPoint x="365.5" y="299" as="targetPoint" />
          </mxGeometry>
        </mxCell>
        <mxCell id="jXaK1RRbCuR9iNc4X-hZ-19" value="P&lt;sup&gt;G&lt;/sup&gt;&lt;sub&gt;ES&lt;/sub&gt;" style="edgeLabel;html=1;align=center;verticalAlign=middle;resizable=0;points=[];" vertex="1" connectable="0" parent="jXaK1RRbCuR9iNc4X-hZ-18">
          <mxGeometry x="-0.3244" relative="1" as="geometry">
            <mxPoint as="offset" />
          </mxGeometry>
        </mxCell>
        <mxCell id="jXaK1RRbCuR9iNc4X-hZ-20" value="" style="ellipse;whiteSpace=wrap;html=1;aspect=fixed;" vertex="1" parent="1">
          <mxGeometry x="365.5" y="228.5" width="25" height="25" as="geometry" />
        </mxCell>
        <mxCell id="jXaK1RRbCuR9iNc4X-hZ-21" style="edgeStyle=orthogonalEdgeStyle;rounded=0;orthogonalLoop=1;jettySize=auto;html=1;exitX=0;exitY=0.5;exitDx=0;exitDy=0;strokeColor=#660000;entryX=1;entryY=0.5;entryDx=0;entryDy=0;strokeWidth=2;" edge="1" parent="1" source="jXaK1RRbCuR9iNc4X-hZ-23" target="jXaK1RRbCuR9iNc4X-hZ-28">
          <mxGeometry relative="1" as="geometry">
            <Array as="points">
              <mxPoint x="335" y="283" />
              <mxPoint x="310" y="284" />
              <mxPoint x="270" y="284" />
            </Array>
            <mxPoint x="260" y="273" as="targetPoint" />
          </mxGeometry>
        </mxCell>
        <mxCell id="jXaK1RRbCuR9iNc4X-hZ-22" value="P&lt;sup&gt;G&lt;/sup&gt;&lt;sub&gt;S&lt;/sub&gt;" style="edgeLabel;html=1;align=center;verticalAlign=middle;resizable=0;points=[];" vertex="1" connectable="0" parent="jXaK1RRbCuR9iNc4X-hZ-21">
          <mxGeometry x="-0.393" y="-1" relative="1" as="geometry">
            <mxPoint x="1" y="1" as="offset" />
          </mxGeometry>
        </mxCell>
        <mxCell id="jXaK1RRbCuR9iNc4X-hZ-23" value="" style="ellipse;whiteSpace=wrap;html=1;aspect=fixed;" vertex="1" parent="1">
          <mxGeometry x="365.5" y="271" width="25" height="25" as="geometry" />
        </mxCell>
        <mxCell id="jXaK1RRbCuR9iNc4X-hZ-24" style="edgeStyle=orthogonalEdgeStyle;rounded=0;orthogonalLoop=1;jettySize=auto;html=1;exitX=0;exitY=0.75;exitDx=0;exitDy=0;entryX=1;entryY=0.5;entryDx=0;entryDy=0;strokeColor=#97D077;strokeWidth=2;" edge="1" parent="1" source="jXaK1RRbCuR9iNc4X-hZ-7" target="jXaK1RRbCuR9iNc4X-hZ-23">
          <mxGeometry relative="1" as="geometry">
            <mxPoint x="322.5" y="299" as="sourcePoint" />
          </mxGeometry>
        </mxCell>
        <mxCell id="jXaK1RRbCuR9iNc4X-hZ-25" value="P&lt;sup&gt;ES&lt;/sup&gt;&lt;sub&gt;G&lt;/sub&gt;" style="edgeLabel;html=1;align=center;verticalAlign=middle;resizable=0;points=[];" vertex="1" connectable="0" parent="jXaK1RRbCuR9iNc4X-hZ-24">
          <mxGeometry x="-0.2909" y="-1" relative="1" as="geometry">
            <mxPoint as="offset" />
          </mxGeometry>
        </mxCell>
        <mxCell id="jXaK1RRbCuR9iNc4X-hZ-26" value="PROSUMER" style="text;html=1;align=center;verticalAlign=middle;resizable=0;points=[];autosize=1;fontStyle=1" vertex="1" parent="1">
          <mxGeometry x="350" y="410" width="90" height="20" as="geometry" />
        </mxCell>
        <mxCell id="jXaK1RRbCuR9iNc4X-hZ-27" value="" style="ellipse;whiteSpace=wrap;html=1;aspect=fixed;" vertex="1" parent="1">
          <mxGeometry x="271" y="228.5" width="25" height="25" as="geometry" />
        </mxCell>
        <mxCell id="jXaK1RRbCuR9iNc4X-hZ-33" style="edgeStyle=orthogonalEdgeStyle;rounded=0;orthogonalLoop=1;jettySize=auto;html=1;entryX=0.5;entryY=1;entryDx=0;entryDy=0;fillColor=#a20025;strokeColor=#6F0000;strokeWidth=2;" edge="1" parent="1" source="jXaK1RRbCuR9iNc4X-hZ-28" target="jXaK1RRbCuR9iNc4X-hZ-29">
          <mxGeometry relative="1" as="geometry" />
        </mxCell>
        <mxCell id="jXaK1RRbCuR9iNc4X-hZ-36" value="P&lt;sup&gt;CG&lt;/sup&gt;&lt;sub&gt;S&lt;/sub&gt;" style="edgeLabel;html=1;align=center;verticalAlign=middle;resizable=0;points=[];" vertex="1" connectable="0" parent="jXaK1RRbCuR9iNc4X-hZ-33">
          <mxGeometry x="0.273" y="1" relative="1" as="geometry">
            <mxPoint as="offset" />
          </mxGeometry>
        </mxCell>
        <mxCell id="jXaK1RRbCuR9iNc4X-hZ-34" style="edgeStyle=orthogonalEdgeStyle;rounded=0;orthogonalLoop=1;jettySize=auto;html=1;exitX=0.5;exitY=1;exitDx=0;exitDy=0;fillColor=#a20025;strokeColor=#6F0000;strokeWidth=2;" edge="1" parent="1" source="jXaK1RRbCuR9iNc4X-hZ-28" target="jXaK1RRbCuR9iNc4X-hZ-4">
          <mxGeometry relative="1" as="geometry" />
        </mxCell>
        <mxCell id="jXaK1RRbCuR9iNc4X-hZ-37" value="P&lt;sup&gt;UG&lt;/sup&gt;&lt;sub&gt;S&lt;/sub&gt;" style="edgeLabel;html=1;align=center;verticalAlign=middle;resizable=0;points=[];" vertex="1" connectable="0" parent="jXaK1RRbCuR9iNc4X-hZ-34">
          <mxGeometry x="0.0044" y="2" relative="1" as="geometry">
            <mxPoint as="offset" />
          </mxGeometry>
        </mxCell>
        <mxCell id="jXaK1RRbCuR9iNc4X-hZ-28" value="" style="ellipse;whiteSpace=wrap;html=1;aspect=fixed;" vertex="1" parent="1">
          <mxGeometry x="271" y="271" width="25" height="25" as="geometry" />
        </mxCell>
        <mxCell id="jXaK1RRbCuR9iNc4X-hZ-31" style="edgeStyle=orthogonalEdgeStyle;rounded=0;orthogonalLoop=1;jettySize=auto;html=1;entryX=0;entryY=0.5;entryDx=0;entryDy=0;fillColor=#1ba1e2;strokeColor=#006EAF;strokeWidth=2;" edge="1" parent="1" source="jXaK1RRbCuR9iNc4X-hZ-29" target="jXaK1RRbCuR9iNc4X-hZ-27">
          <mxGeometry relative="1" as="geometry" />
        </mxCell>
        <mxCell id="jXaK1RRbCuR9iNc4X-hZ-35" value="P&lt;sup&gt;CG&lt;/sup&gt;&lt;sub&gt;B&lt;/sub&gt;" style="edgeLabel;html=1;align=center;verticalAlign=middle;resizable=0;points=[];" vertex="1" connectable="0" parent="jXaK1RRbCuR9iNc4X-hZ-31">
          <mxGeometry x="-0.2926" y="-1" relative="1" as="geometry">
            <mxPoint as="offset" />
          </mxGeometry>
        </mxCell>
        <mxCell id="jXaK1RRbCuR9iNc4X-hZ-29" value="COMMUNITY&lt;br&gt;GRID" style="rounded=0;whiteSpace=wrap;html=1;fontSize=12;" vertex="1" parent="1">
          <mxGeometry x="126" y="216.25" width="80" height="59.75" as="geometry" />
        </mxCell>
      </root>
    </mxGraphModel>
  </diagram>
</mxfile>
